PathFileType	4	(X/Y/Z)	Patient4_TMGait_0pt5_01_left_40.trc.trc
DataRate	CameraRate	NumFrames	NumMarkers	Units	OrigDataRate	OrigDataStartFrame	OrigNumFrames
73.684210526316	73.684210526316	4	33	mm	73.684210526316	106	       141
Frame#	Time	L.ASIS			Sacral			L.Shoulder			Chest			R.Shoulder			Neck			R.ASIS			R.Thigh.Superior			R.Thigh.Lateral			R.Thigh.Inferior			R.Patella			L.Thigh.Superior			L.Thigh.Lateral			L.Thigh.Inferior			L.Patella			L.Shank.Superior			L.Shank.Lateral			L.Shank.Inferior			R.Shank.Superior			R.Shank.Lateral			R.Shank.Inferior			R.Heel			R.Midfoot.Superior			R.Midfoot.Lateral			R.Toe			L.Heel			L.Midfoot.Lateral			L.Midfoot.Superior			L.Toe			L.Elbow			L.Wrist			R.Elbow			R.Wrist			
		X1	Y1	Z1	X2	Y2	Z2	X3	Y3	Z3	X4	Y4	Z4	X5	Y5	Z5	X6	Y6	Z6	X7	Y7	Z7	X8	Y8	Z8	X9	Y9	Z9	X10	Y10	Z10	X11	Y11	Z11	X12	Y12	Z12	X13	Y13	Z13	X14	Y14	Z14	X15	Y15	Z15	X16	Y16	Z16	X17	Y17	Z17	X18	Y18	Z18	X19	Y19	Z19	X20	Y20	Z20	X21	Y21	Z21	X22	Y22	Z22	X23	Y23	Z23	X24	Y24	Z24	X25	Y25	Z25	X26	Y26	Z26	X27	Y27	Z27	X28	Y28	Z28	X29	Y29	Z29	X30	Y30	Z30	X31	Y31	Z31	X32	Y32	Z32	X33	Y33	Z33	

106	54.695000000000	793.819231731196	970.731246895562	351.246416255888	594.280552980927	1008.259146993845	525.293582513151	735.336016222290	1447.876532774725	352.471212129733	858.130526455608	1373.645461496544	496.830476843973	793.205648964382	1433.710072524804	683.923743481099	742.900162417533	1501.438457670885	507.536836791022	828.464129085841	946.029598022828	623.283913681103	850.278048748837	740.704073524959	594.891988336688	760.594684009135	636.736539921007	655.796214066869	831.433454589337	579.772169203862	576.025441740620	823.236398512521	493.580773754499	581.538646016921	874.999568273692	782.539803477976	367.800669275824	819.348208446513	655.906306020224	293.426403926671	924.655519536961	592.795913397235	345.594192528529	945.249296090110	515.724522514376	337.150374661487	908.284450901819	441.491599541017	331.335590713762	800.194038540000	340.506047391465	287.070485170547	853.138215399735	219.401550630812	338.971159153625	794.572363878505	405.558600248323	586.339472980178	718.429321921174	301.903553893519	641.802937880064	763.588335182765	207.894192685262	578.986208938416	627.260654254088	44.088451927799	536.594556497828	799.067533211889	97.853373705145	582.406664241698	707.550203253767	36.463739523854	615.164773635029	915.952039658567	42.340957117295	613.736210348994	719.997954465770	67.683281095550	384.060370683149	785.981134985772	60.800918760803	297.885947358256	874.054704196244	119.625922740498	314.481883170777	994.288899545652	63.699336410676	275.220594665593	632.600417085317	1104.948727568926	251.844849923843	627.127677805445	844.519705505380	262.472265498652	912.862734435228	1104.787355556608	780.617427850601	1159.212186672252	1040.911938157387	733.913817038333	
107	54.708571428571	791.938320587434	970.190778074706	350.603427916049	593.282159900378	1007.930054020910	525.606445044654	733.908053548749	1447.653787674217	352.661767944645	857.224964770018	1373.077427894086	496.382699053540	793.041253388219	1432.878403206715	683.785821338540	742.004827183530	1500.873494797962	507.826684969933	827.675400952507	945.266511077106	622.503741060634	847.610169652973	739.557719846438	593.625048509058	757.305036249734	636.257950491977	655.347284134480	826.703582080649	578.797460841699	575.049529710157	817.782893743147	492.868800903234	580.609454158644	872.189707693168	781.548677677599	367.722206977017	817.163782114849	655.193406910324	292.738444428312	921.726508724449	592.140630332679	346.809052704174	943.829575796295	517.165234892381	338.033969813912	910.618030063744	443.120816862351	331.228344197505	808.982646952494	336.087587963474	285.752766974497	869.003855118784	217.829318046699	337.351524753811	788.848491571776	404.851839259532	585.591984130601	712.674012683860	301.454653228000	641.497920986420	757.126794989265	207.334372625314	578.459550084759	620.359558933196	43.720078604953	536.553923714645	791.929141050199	97.691336723398	582.118886908840	700.588696493063	36.393347379720	615.196563859503	908.985572290517	42.560069108605	613.735765510422	744.944629423852	57.999244175126	381.158784312741	811.920886682697	55.195456796414	295.336224755500	896.345704968719	119.111244050159	312.562444352623	1020.054948572710	70.379683371335	273.953384891062	626.132323564948	1106.458177617665	252.984847398382	615.837369517872	846.202391372124	265.885106766871	919.230956404521	1107.341427319799	779.650658670890	1168.300219386108	1059.804660899237	729.754408501487	
108	54.722142857143	789.980046008367	969.492520779083	349.792088585808	592.253195285916	1007.531760057962	525.851467179383	732.480021589416	1447.310766341857	352.615790748193	856.333536233694	1372.400718624351	495.689623507741	792.924521825947	1431.975166379732	683.402307949678	741.179885665814	1500.224139554582	507.869827283392	826.907479662521	944.450325913137	621.563975583884	845.039662413718	738.363068000205	592.333538787622	754.151255763513	635.732834517040	654.837852938996	822.104097546420	577.803674951132	573.996000687200	812.502074001062	492.106733610828	579.604409242300	869.206352637995	780.430762440243	367.636118320292	814.944464957852	654.379395183692	292.000419506061	918.852221284088	591.434543724526	347.891133122336	942.374955023469	518.447420173763	338.896018800827	912.709195545487	444.781738179318	331.214593234326	817.537194349661	332.354657918381	284.595667678344	884.009278084225	217.236648673921	336.117317953343	783.237982002650	404.104792887419	584.794540171236	707.039413102483	300.982520166583	641.201282771599	750.699703638800	206.745708993345	577.908098690793	613.446596729569	43.362338002416	536.520181697479	784.744848224945	97.509372978102	581.792128206232	693.617110650875	36.321590644102	615.235131847880	902.010918339047	42.788390521045	613.726684454631	768.816980696295	50.387036403130	378.710890741988	836.710542481587	51.232762148011	293.382251160112	917.436131091829	119.727980379096	311.232026450939	1044.096681294575	77.766513921053	273.638878927044	620.174081914085	1107.766437641188	253.830837279850	605.738022216307	847.713327524660	268.642503916856	925.135953098596	1109.812688434900	778.510706338868	1175.766462216929	1078.338274592667	725.527414890493	
109	54.735714285714	787.952779397423	968.693598932942	348.820450101459	591.200640357754	1007.094875150246	526.038965008459	731.045933198684	1446.874525404977	352.322214140749	855.455356004972	1371.656800194190	494.739753903449	792.866768414860	1431.063414178938	682.756582591422	740.434748110988	1499.532347179566	507.645107499191	826.161207642767	943.621785902893	620.471655693332	842.571132291886	737.161201742298	591.021236564398	751.157320685879	635.186965076239	654.272103360745	817.679646824566	576.817894087154	572.882886502929	807.439789937520	491.316324252115	578.548109115366	866.167143141097	779.329890338485	367.489970892193	812.778503902833	653.543465901216	291.250344538855	916.197291584436	590.794409619304	348.717947039718	941.011077672699	519.634166919097	339.667179020037	914.626841389643	446.479415680851	331.266500450952	825.728159802722	329.357422611223	283.630878177019	897.947879851553	217.531148409317	335.258416239277	777.780444504417	403.341099923551	583.966327702566	701.543745392034	300.521575980218	640.918452828686	744.329553518858	206.154164616773	577.352336071381	606.526118018064	43.042250404696	536.495731792414	777.540029623809	97.319484588327	581.446229754516	686.644503404027	36.253437852338	615.277648087559	895.035832489925	43.012178675079	613.712746065328	791.159896728775	44.785066276267	376.772842720258	859.898239733495	48.783309470634	292.043028285779	937.015252667770	121.294558059354	310.459180065016	1066.115987096711	85.521624026666	274.171117469580	614.755721833404	1108.847071145040	254.385182085586	596.847450233283	848.994682281078	270.718916330018	930.593830789965	1112.215533324767	777.194937665935	1181.689267671000	1096.329066080012	721.267034899604	
